<?xml version="1.0" standalone="no"?><svg xmlns="http://www.w3.org/2000/svg" viewBox="0 0 1440 320"><path fill="#00cba9" fill-opacity="1" d="M0,96L20,112C40,128,80,160,120,149.3C160,139,200,85,240,69.3C280,53,320,75,360,117.3C400,160,440,224,480,250.7C520,277,560,267,600,224C640,181,680,107,720,106.7C760,107,800,181,840,208C880,235,920,213,960,192C1000,171,1040,149,1080,154.7C1120,160,1160,192,1200,208C1240,224,1280,224,1320,213.3C1360,203,1400,181,1420,170.7L1440,160L1440,0L1420,0C1400,0,1360,0,1320,0C1280,0,1240,0,1200,0C1160,0,1120,0,1080,0C1040,0,1000,0,960,0C920,0,880,0,840,0C800,0,760,0,720,0C680,0,640,0,600,0C560,0,520,0,480,0C440,0,400,0,360,0C320,0,280,0,240,0C200,0,160,0,120,0C80,0,40,0,20,0L0,0Z"></path></svg>