<?xml version="1.0" standalone="no"?><svg xmlns="http://www.w3.org/2000/svg" viewBox="0 0 1440 320"><path fill="#00cba9" fill-opacity="1" d="M0,96L34.3,122.7C68.6,149,137,203,206,197.3C274.3,192,343,128,411,101.3C480,75,549,85,617,74.7C685.7,64,754,32,823,64C891.4,96,960,192,1029,208C1097.1,224,1166,160,1234,144C1302.9,128,1371,160,1406,176L1440,192L1440,320L1405.7,320C1371.4,320,1303,320,1234,320C1165.7,320,1097,320,1029,320C960,320,891,320,823,320C754.3,320,686,320,617,320C548.6,320,480,320,411,320C342.9,320,274,320,206,320C137.1,320,69,320,34,320L0,320Z"></path></svg>