<?xml version="1.0" standalone="no"?><svg xmlns="http://www.w3.org/2000/svg" viewBox="0 0 1440 320"><path fill="#00cba9" fill-opacity="1" d="M0,96L34.3,122.7C68.6,149,137,203,206,197.3C274.3,192,343,128,411,101.3C480,75,549,85,617,74.7C685.7,64,754,32,823,64C891.4,96,960,192,1029,208C1097.1,224,1166,160,1234,144C1302.9,128,1371,160,1406,176L1440,192L1440,0L1405.7,0C1371.4,0,1303,0,1234,0C1165.7,0,1097,0,1029,0C960,0,891,0,823,0C754.3,0,686,0,617,0C548.6,0,480,0,411,0C342.9,0,274,0,206,0C137.1,0,69,0,34,0L0,0Z"></path></svg>